# AST/ASF file generated using VICON BodyLanguage
# -----------------------------------------------
:version 1.10
:name VICON
:units
  mass 1.0
  length 0.45
  angle deg
:documentation
   .ast/.asf automatically generated from VICON data using
   VICON BodyBuilder and BodyLanguage model FoxedUp or BRILLIANT.MOD
:root
   order TX TY TZ RX RY RZ
   axis XYZ
   position 0 0 0  
   orientation 0 0 0 
:bonedata
  begin
     id 1 
     name lhipjoint
     direction 0.611804 -0.747784 0.257906 
     length 2.29243 
     axis 0 0 0  XYZ
  end
  begin
     id 2 
     name lfemur
     direction 0.34202 -0.939693 0  
     length 7.31159  
     axis 0 0 20  XYZ
    dof rx ry rz
    limits (-160.0 20.0)
           (-70.0 70.0)
           (-60.0 70.0)
  end
  begin
     id 3 
     name ltibia
     direction 0.34202 -0.939693 0   
     length 7.33391   
     axis 0 0 20   XYZ
    dof rx
    limits (-10.0 170.0)
  end
  begin
     id 4 
     name lfoot
     direction 0.122263 -0.335914 0.933924   
     length 1.76083   
     axis -90 7.62852e-016 20   XYZ
    dof rx rz
    limits (-45.0 90.0)
           (-70.0 20.0)
  end
  begin
     id 5 
     name ltoes
     direction 1.53533e-011 -4.2177e-011 1   
     length 0.879206   
     axis -90 7.62852e-016 20   XYZ
    dof rx
    limits (-90.0 20.0)
  end
  begin
     id 6 
     name rhipjoint
     direction -0.646469 -0.721248 0.248754   
     length 2.37677  
     axis 0 0 0  XYZ 
  end
  begin
     id 7 
     name rfemur
     direction -0.34202 -0.939693 0   
     length 7.18623   
     axis 0 0 -20   XYZ
    dof rx ry rz
    limits (-160.0 20.0)
           (-70.0 70.0)
           (-70.0 60.0)
  end
  begin
     id 8 
     name rtibia
     direction -0.34202 -0.939693 0   
     length 7.36567   
     axis 0 0 -20   XYZ
    dof rx
    limits (-10.0 170.0)
 end
 begin
     id 9 
     name rfoot
     direction -0.126681 -0.348054 0.928876   
     length 1.71902  
     axis -90 -7.62852e-016 -20   XYZ
    dof rx rz
    limits (-45.0 90.0)
           (-20.0 70.0)
  end
  begin
     id 10 
     name rtoes
     direction -1.53551e-011 -4.21898e-011 1   
     length 0.857792   
     axis -90 -7.62852e-016 -20   XYZ
    dof rx
    limits (-90.0 20.0)
  end
  begin
     id 11 
     name lowerback
     direction 0.0106509 0.999778 0.0181844   
     length 2.07668   
     axis 0 0 0   XYZ
    dof rx ry rz
    limits (-20.0 45.0)
           (-30.0 30.0)
           (-30.0 30.0)
  end
  begin
     id 12 
     name upperback
     direction -0.00456018 0.999989 -0.000590935   
     length 2.08011   
     axis 0 0 0   XYZ
    dof rx ry rz
    limits (-20.0 45.0)
           (-30.0 30.0)
           (-30.0 30.0)
  end
  begin
     id 13 
     name thorax
     direction -0.00910382 0.999916 -0.00923765   
     length 2.07397   
     axis 0 0 0   XYZ
    dof rx ry rz
    limits (-20.0 45.0)
           (-30.0 30.0)
           (-30.0 30.0)
  end
  begin
     id 14 
     name lowerneck
     direction 0.00171967 0.99778 0.0665733   
     length 1.67556   
     axis 0 0 0   XYZ
    dof rx ry rz
    limits (-20.0 45.0)
           (-30.0 30.0)
           (-30.0 30.0)
  end
  begin
     id 15 
     name upperneck
     direction -0.0143166 0.991302 -0.130828   
     length 1.68462   
     axis 0 0 0   XYZ
    dof rx ry rz
    limits (-20.0 45.0)
           (-30.0 30.0)
           (-30.0 30.0)
  end
  begin
     id 16
     name head
     direction -0.00606378 0.998665 -0.0512995  
     length 1.69269  
     axis 0 0 0   XYZ
    dof rx ry rz
    limits (-20.0 45.0)
           (-30.0 30.0)
           (-30.0 30.0)
  end
  begin
     id 17 
     name lclavicle
     direction 0.9638 0.179341 0.197297  
     length 4.12888  
     axis 0 0 0   XYZ
    dof ry rz
    limits (-20.0 10.0)
           (0.0 20.0)
  end
  begin
     id 18 
     name lhumerus
     direction 1 -4.48972e-011 -2.47351e-027   
     length 5.01834   
     axis -180 -30 -90   XYZ
    dof rx ry rz
    limits (-60.0 90.0)
           (-90.0 90.0)
           (-90.0 90.0)
  end
  begin
     id 19
     name lradius
     direction 1 -4.48965e-011 1.51591e-026   
     length 3.4869   
     axis -180 -30 -90   XYZ
    dof rx
    limits (-10.0 170.0)
  end
  begin
     id 20
     name lwrist
     direction 1 -4.48957e-011 2.70032e-026   
     length 1.74345   
     axis -1.81515e-014 90 90   XYZ
    dof ry
    limits (-180.0 0.0)
 end
  begin
     id 21 
     name lhand
     direction 1 -4.48951e-011 5.40064e-026   
     length 0.76799   
     axis -3.44607e-014 90 90   XYZ
    dof rx rz
    limits (-90.0 90.0)
           (-45.0 45.0)
  end
  begin
     id 22 
     name lfingers
     direction 1 -4.48971e-011 1.08013e-025   
     length 0.619174   
     axis -6.89214e-014 90 90   XYZ
    dof rx
    limits (0.0 90.0)
  end
  begin
     id 23
     name lthumb
     direction 0.707107 -6.34931e-011 0.707107   
     length 0.889013   
     axis -90 45 2.85299e-015   XYZ
    dof rx rz
    limits (-45.0 45.0)
           (-45.0 45.0)
  end
  begin
     id 24 
     name rclavicle
     direction -0.961409 0.252588 0.109054   
     length 4.04305  
     axis 0 0 0   XYZ 
    dof ry rz
    limits (-10.0 20.0)
           (-20.0 0.0)
  end
  begin
     id 25 
     name rhumerus
     direction -1 -4.4897e-011 1.33872e-017  
     length 4.70164   
     axis -180 30 90   XYZ
    dof rx ry rz
    limits (-90.0 60.0)
           (-90.0 90.0)
           (-90.0 90.0)
  end
  begin
     id 26 
     name rradius
     direction -1 -4.48954e-011 1.83844e-026   
     length 3.49911   
     axis -180 30 90   XYZ
    dof rx
    limits (-10.0 170.0)
  end
  begin
     id 27 
     name rwrist
     direction -1 -4.49008e-011 2.70032e-026   
     length 1.74955   
     axis -1.81515e-014 -90 -90   XYZ
    dof ry
    limits (-180.0 0.0)
  end
  begin
     id 28
     name rhand
     direction -1 -4.48916e-011 5.40064e-026   
     length 0.739335   
     axis -3.44607e-014 -90 -90   XYZ
    dof rx rz
    limits (-90.0 90.0)
           (-45.0 45.0)
  end
  begin
     id 29
     name rfingers
     direction -1 -4.48987e-011 1.08013e-025   
     length 0.596071   
     axis -6.89214e-014 -90 -90   XYZ
    dof rx
    limits (0.0 90.0)
  end
  begin
     id 30
     name rthumb
     direction -0.707107 -6.34935e-011 0.707107   
     length 0.855843   
     axis -90 -45 -2.85299e-015   XYZ
    dof rx rz
    limits (-45.0 45.0)
           (-45.0 45.0)
  end
:hierarchy
  begin
    root lhipjoint rhipjoint lowerback
    lhipjoint lfemur
    lfemur ltibia
    ltibia lfoot
    lfoot ltoes
    rhipjoint rfemur
    rfemur rtibia
    rtibia rfoot
    rfoot rtoes
    lowerback upperback
    upperback thorax
    thorax lowerneck lclavicle rclavicle
    lowerneck upperneck
    upperneck head
    lclavicle lhumerus
    lhumerus lradius
    lradius lwrist
    lwrist lhand lthumb
    lhand lfingers
    rclavicle rhumerus
    rhumerus rradius
    rradius rwrist
    rwrist rhand rthumb
    rhand rfingers
  end

#!OML:ASF I:\salsa\salsa 7_09\Patient 1\Session 1\dancermale.ASF
:FULLY-SPECIFIED
:DEGREES
593
root 6.11079 16.6151 7.28479 -378.111 236.03 -353.831
lowerback 18.9646 1.71712 9.8684
upperback 5.48726 3.61444 0.449986
thorax -4.00733 1.5662 -5.87015
lowerneck -8.46465 9.41165 5.83812
upperneck 26.9482 14.4004 -11.6982
head 11.4794 5.46274 -3.47167
rclavicle 3.99806e-014 -3.79679e-014
rhumerus -29.4564 -17.573 -74.3975
rradius 51.9952
rwrist 15.0403
rhand -22.5471 -2.26245
rfingers 7.12502
rthumb 3.88042 -32.2069
lclavicle 3.99806e-014 -3.79679e-014
lhumerus -24.1019 -18.8935 69.7868
lradius 53.5811
lwrist 31.1737
lhand -6.06207 33.2904
lfingers 7.12502
lthumb 19.7727 422.305
rfemur 21.6725 -21.7947 17.5591
rtibia 42.3718
rfoot -19.2948 -20.3796
rtoes 14.4021
lfemur 2.00121 0.58771 -20.7166
ltibia 32.2663
lfoot -27.6318 11.5976
ltoes 0.351249
594
root 6.04425 16.6547 7.19797 -379.927 237.875 -352.363
lowerback 18.9374 1.70842 10.222
upperback 5.68515 3.65112 0.697495
thorax -3.76067 1.59721 -5.79963
lowerneck -8.6789 8.98602 5.49639
upperneck 27.01 13.7962 -11.3795
head 11.4223 5.19228 -3.37823
rclavicle 1.54307e-014 4.57205e-015
rhumerus -27.3853 -18.1482 -73.8542
rradius 51.39
rwrist 17.4938
rhand -22.066 -3.12668
rfingers 7.12502
rthumb 4.34506 -33.0621
lclavicle 1.54307e-014 4.57205e-015
lhumerus -26.1655 -20.555 71.9444
lradius 54.5127
lwrist 31.6606
lhand -5.87876 33.3681
lfingers 7.12502
lthumb 19.9489 422.364
rfemur 19.4829 -23.6662 16.9744
rtibia 48.0444
rfoot -15.7012 -20.7568
rtoes 16.491
lfemur 3.5672 0.480895 -19.7296
ltibia 31.1179
lfoot -27.4126 10.9009
ltoes -4.08951
595
root 5.98201 16.6897 7.11147 -381.877 239.808 -350.685
lowerback 18.971 1.74414 10.5892
upperback 5.79708 3.76543 0.864162
thorax -3.61898 1.66282 -5.84529
lowerneck -8.84713 8.40902 5.29651
upperneck 27.063 12.9133 -10.9125
head 11.326 4.83338 -3.29361
rclavicle -5.75233e-015 -2.50469e-014
rhumerus -25.7977 -18.7949 -73.1008
rradius 51.3771
rwrist 19.6081
rhand -20.9547 -3.99577
rfingers 7.12502
rthumb 5.41813 -33.9065
lclavicle -5.75233e-015 -2.50469e-014
lhumerus -28.1147 -22.8682 74.2856
lradius 55.6395
lwrist 32.4916
lhand -5.85968 33.3002
lfingers 7.12502
lthumb 19.9672 422.294
rfemur 17.1587 -25.4997 16.4083
rtibia 53.5372
rfoot -11.5139 -21.0975
rtoes 15.7875
lfemur 5.47993 1.47312 -18.1104
ltibia 29.2164
lfoot -26.9229 9.52192
ltoes -9.67575
596
root 5.91579 16.7255 7.02481 -383.549 241.763 -349.024
lowerback 18.7392 1.80158 10.7149
upperback 5.81396 3.85457 1.06554
thorax -3.46939 1.71902 -5.70171
lowerneck -8.95119 7.83683 4.93737
upperneck 27.102 12.0603 -10.4389
head 11.2113 4.47242 -3.17608
rclavicle 2.69602e-014 3.40916e-014
rhumerus -24.2872 -19.0315 -72.0914
rradius 51.6544
rwrist 21.0564
rhand -19.5205 -4.38045
rfingers 7.12502
rthumb 6.80268 -34.2512
lclavicle 2.69602e-014 3.40916e-014
lhumerus -30.2583 -25.1279 77.0352
lradius 56.9431
lwrist 33.1359
lhand -5.42801 33.0883
lfingers 7.12502
lthumb 20.3821 422.039
rfemur 14.3273 -26.7446 16.3382
rtibia 58.2793
rfoot -7.15091 -21.0553
rtoes 13.0079
lfemur 6.73666 1.94893 -16.8215
ltibia 27.7246
lfoot -26.654 7.87867
ltoes -11.7651
597
root 5.84275 16.7604 6.93893 -384.926 243.815 -347.573
lowerback 18.3489 1.88862 10.5651
upperback 5.80379 3.92127 1.23802
thorax -3.2918 1.76766 -5.42358
lowerneck -9.16469 7.28871 4.66921
upperneck 27.2786 11.2839 -10.1573
head 11.2078 4.11994 -3.13159
rclavicle -4.41426e-014 -9.0447e-015
rhumerus -22.9702 -18.9507 -70.821
rradius 52.1782
rwrist 22.1129
rhand -18.5023 -5.07567
rfingers 7.12502
rthumb 7.78558 -34.9123
lclavicle -4.41426e-014 -9.0447e-015
lhumerus -32.3093 -27.2869 80.0568
lradius 58.2443
lwrist 33.8728
lhand -4.65989 32.9277
lfingers 7.12502
lthumb 21.1202 421.797
rfemur 11.2132 -27.4439 16.4163
rtibia 62.3071
rfoot -2.88931 -20.2404
rtoes 9.04769
lfemur 7.59892 1.79726 -16.0889
ltibia 26.4697
lfoot -26.3611 6.10954
ltoes -11.6413
598
root 5.76221 16.7963 6.85434 -387.151 245.87 -345.538
lowerback 18.2235 1.87142 10.5566
upperback 5.84965 3.89419 1.45879
thorax -3.19892 1.76098 -5.16834
lowerneck -9.35496 6.79206 4.40119
upperneck 27.5034 10.5939 -9.92369
head 11.235 3.798 -3.09406
rclavicle 6.41205e-014 5.24792e-014
rhumerus -22.0636 -18.4551 -69.2784
rradius 53.1168
rwrist 22.6132
rhand -17.9334 -5.97143
rfingers 7.12502
rthumb 8.33459 -35.787
lclavicle 6.41205e-014 5.24792e-014
lhumerus -34.2902 -29.2801 83.3085
lradius 59.4981
lwrist 34.5523
lhand -3.26739 32.7464
lfingers 7.12502
lthumb 22.4573 421.461
rfemur 8.69088 -27.3963 16.8397
rtibia 64.8636
rfoot -1.0999 -19.5152
rtoes 9.36509
lfemur 8.68497 0.844029 -15.6353
ltibia 25.3034
lfoot -26.0716 5.24436
ltoes -12.6423
599
root 5.68052 16.8373 6.76348 -390.644 247.827 -342.512
lowerback 18.4486 1.76855 10.6994
upperback 5.95646 3.80919 1.79914
thorax -3.22819 1.71242 -4.87543
lowerneck -9.32884 6.35281 4.05904
upperneck 27.5957 9.98763 -9.6893
head 11.1752 3.51843 -3.03412
rclavicle -4.18069e-014 -1.27222e-014
rhumerus -21.5023 -17.8628 -67.4377
rradius 54.3405
rwrist 22.9735
rhand -17.7545 -6.66702
rfingers 7.12502
rthumb 8.50727 -36.4756
lclavicle -4.18069e-014 -1.27222e-014
lhumerus -36.198 -30.9699 86.7879
lradius 60.6981
lwrist 35.4427
lhand -2.44339 32.7573
lfingers 7.12502
lthumb 23.2481 421.374
rfemur 6.78852 -26.5085 17.7527
rtibia 65.9718
rfoot -1.64402 -19.7061
rtoes 13.4166
lfemur 10.0744 -0.844575 -15.2802
ltibia 24.2228
lfoot -25.9471 5.32029
ltoes -14.9007
600
root 5.60315 16.8873 6.66826 -395.161 249.548 -338.542
lowerback 18.8406 1.63552 10.9778
upperback 6.14442 3.71359 2.19715
thorax -3.24904 1.6555 -4.59833
lowerneck -9.39937 5.98745 3.80071
upperneck 27.6552 9.49675 -9.54135
head 11.1462 3.28955 -2.99985
rclavicle 2.37051e-014 -2.42517e-014
rhumerus -20.9364 -17.4496 -65.4601
rradius 55.6504
rwrist 23.509
rhand -17.8682 -7.10532
rfingers 7.12502
rthumb 8.39754 -36.9184
lclavicle 2.37051e-014 -2.42517e-014
lhumerus -37.6682 -32.3957 90.2076
lradius 61.7164
lwrist 36.192
lhand -1.365 32.8479
lfingers 7.12502
lthumb 24.2823 421.33
rfemur 5.23192 -24.88 19.0666
rtibia 65.831
rfoot -2.09768 -19.7702
rtoes 15.8612
lfemur 11.4165 -2.50275 -14.6782
ltibia 23.4684
lfoot -26.0709 4.87596
ltoes -15.8685
601
root 5.52656 16.9445 6.57539 -400.392 250.915 -333.848
lowerback 19.3026 1.47482 11.457
upperback 6.35718 3.62052 2.55048
thorax -3.25652 1.60052 -4.48101
lowerneck -9.64372 5.6915 3.58491
upperneck 27.7826 9.08257 -9.30454
head 11.1845 3.10369 -2.92639
rclavicle -1.4561e-014 -7.4743e-014
rhumerus -20.171 -17.3952 -63.5421
rradius 56.7838
rwrist 24.077
rhand -17.802 -7.54886
rfingers 7.12502
rthumb 8.46145 -37.3594
lclavicle -1.4561e-014 -7.4743e-014
lhumerus -38.8728 -33.6565 93.4319
lradius 62.7415
lwrist 37.1052
lhand -0.732242 33.254
lfingers 7.12502
lthumb 24.8888 421.654
rfemur 3.81485 -22.3081 20.7526
rtibia 64.6116
rfoot -2.56351 -19.9308
rtoes 16.8458
lfemur 12.795 -3.97281 -13.8594
ltibia 22.6305
lfoot -26.0745 3.76985
ltoes -14.8659
602
root 5.44731 17.0078 6.48382 -405.796 251.965 -328.87
lowerback 19.7426 1.31794 12.0009
upperback 6.48398 3.55835 2.81314
thorax -3.32864 1.55936 -4.50209
lowerneck -9.80027 5.40307 3.42679
upperneck 27.8825 8.66134 -9.06623
head 11.1987 2.92378 -2.86483
rclavicle -4.64535e-014 -4.18442e-014
rhumerus -19.4121 -17.4457 -61.6843
rradius 57.8419
rwrist 24.2368
rhand -17.8486 -8.21152
rfingers 7.12502
rthumb 8.41644 -38.0238
lclavicle -4.64535e-014 -4.18442e-014
lhumerus -40.0944 -34.6809 96.5544
lradius 63.7905
lwrist 37.8857
lhand -0.141391 33.5559
lfingers 7.12502
lthumb 25.4549 421.876
rfemur 2.55691 -19.225 22.4065
rtibia 62.5595
rfoot -2.71727 -20.5717
rtoes 16.8275
lfemur 14.1464 -5.19096 -12.943
ltibia 21.5452
lfoot -25.8122 2.77632
ltoes -14.045
603
root 5.36124 17.0691 6.39695 -410.732 252.868 -324.25
lowerback 20.0166 1.19331 12.4103
upperback 6.606 3.49501 2.97611
thorax -3.32337 1.52613 -4.54734
lowerneck -9.92614 5.12909 3.2805
upperneck 27.9208 8.26584 -8.87446
head 11.1902 2.75438 -2.8183
rclavicle 1.91454e-014 -9.83984e-015
rhumerus -18.5831 -17.5985 -59.8878
rradius 58.9088
rwrist 24.2222
rhand -17.7567 -8.75196
rfingers 7.12502
rthumb 8.50518 -38.5607
lclavicle 1.91454e-014 -9.83984e-015
lhumerus -41.1983 -35.9088 99.6211
lradius 64.7437
lwrist 39.2851
lhand -0.530635 33.5452
lfingers 7.12502
lthumb 25.082 421.918
rfemur 1.43754 -15.5048 23.7735
rtibia 59.7021
rfoot -2.67372 -21.6518
rtoes 15.7033
lfemur 15.4449 -6.38911 -12.3353
ltibia 20.2262
lfoot -25.4392 2.16461
ltoes -13.9572
604
root 5.2833 17.1208 6.29886 -415.39 253.813 -319.715
lowerback 20.1332 1.0874 12.3903
upperback 6.72271 3.35842 3.12326
thorax -3.28869 1.4595 -4.35132
lowerneck -10.0585 4.97806 3.08303
upperneck 27.8707 8.04076 -8.63296
head 11.1592 2.66679 -2.71943
rclavicle 4.38569e-014 6.45056e-014
rhumerus -17.5628 -17.7907 -58.1629
rradius 59.9928
rwrist 24.1088
rhand -17.4778 -9.07528
rfingers 7.12502
rthumb 8.77425 -38.8729
lclavicle 4.38569e-014 6.45056e-014
lhumerus -41.9816 -37.2054 102.527
lradius 65.4482
lwrist 40.9994
lhand -1.23184 32.622
lfingers 7.12502
lthumb 24.41 421.087
rfemur 0.413635 -11.6571 24.7984
rtibia 56.4607
rfoot -3.24057 -22.7987
rtoes 14.983
lfemur 16.5626 -7.68609 -12.0163
ltibia 18.7977
lfoot -25.216 1.6882
ltoes -14.5093
605
root 5.21215 17.1641 6.18465 -420.521 254.812 -314.553
lowerback 20.2208 0.943956 12.0496
upperback 6.74454 3.12822 3.2563
thorax -3.38191 1.33904 -3.97601
lowerneck -10.154 4.92138 2.97516
upperneck 27.8529 7.9478 -8.45591
head 11.1512 2.6387 -2.64431
rclavicle 5.41564e-014 3.61291e-014
rhumerus -16.4864 -17.9338 -56.4732
rradius 61.0906
rwrist 23.8026
rhand -16.9891 -9.36291
rfingers 7.12502
rthumb 9.2459 -39.1402
lclavicle 5.41564e-014 3.61291e-014
lhumerus -42.9982 -38.1103 105.288
lradius 66.4383
lwrist 42.7251
lhand -0.605161 33.3738
lfingers 7.12502
lthumb 25.0106 421.757
rfemur -0.413576 -7.63841 25.6464
rtibia 52.7203
rfoot -4.45051 -24.0286
rtoes 13.9626
lfemur 17.4052 -8.87039 -11.6475
ltibia 17.4958
lfoot -25.0751 1.06656
ltoes -15.4692
